<svg xmlns="http://www.w3.org/2000/svg" viewBox="0 0 400 300"><path d="M60.9 102.7H63c.4 11.2-8.8 22.7-20.5 22.5-.1-10.8 7.9-20.5 18.4-22.5zm260.7 5.7c4.9-3.2 12 1.7 11 7.4-.2 4.1-4.1 6.2-7.6 7.1-1.9-.8-4.1-1.3-5.4-3-3.4-3.2-2.2-9.6 2-11.5zm-226.1.6H111c9.7 23.2 19.1 46.6 28.6 70 9.8-23.2 19-46.7 28.7-69.9h15.5c.1 29 0 57.9 0 86.9-4.1 0-8.2 0-12.2.1-.2-21.2.2-42.4-.2-63.5-.9 1.6-1.7 3.3-2.5 5-7.9 19.5-16 38.9-24 58.4-3.5 0-7 .1-10.5-.2-8.4-21.4-17.5-42.4-26-63.7-.5 21.3-.1 42.5-.2 63.8-4.2.1-8.4.1-12.7.1 0-29.1-.1-58.1 0-87zm-71.3 16.5c6.8-1.2 12.8 2.9 19.3 4 6.1-1.3 11.9-4.9 18.3-4.3 7.2-.2 13.9 3.6 18.4 9-6.9 4.5-11.9 12.4-10.4 20.9.5 7.8 6.5 13.7 13 17.2-3.5 8.8-8.3 17.9-16.3 23.4-8 5.1-16.1-4.1-24.5-2-4.2.8-8 2.6-12.2 3.7h-3.3c-2.7-1.1-5.3-2.6-7.4-4.7-9.2-9.5-15-22.2-16.5-35.3v-7c.8-11.8 9.5-23.3 21.6-24.9zm243.4 10.6c9.4-5.8 21.9-6 31.6-1 6 3.2 9.7 9.6 10 16.4h-12c-1.1-2.4-1.7-5.1-3.7-6.9-3.6-3.2-8.8-3.6-13.3-2.7-3.8.9-8.1 3.8-7.6 8.2-.4 3.5 2.7 5.8 5.6 6.8 7.2 2.6 15 3.1 22 6 3.9 1.6 7.6 4.2 9.2 8.2 3.3 7.1.4 16-5.7 20.6-4.2 3.2-9.4 4.9-14.6 5.6h-9.5c-6-1.1-12.2-3.2-16.4-7.9-3.2-3.2-4.3-7.7-5.2-12 4.3 0 8.6.1 12.9.4 1.5 3.8 3.8 7.8 8 8.8 5.5 1.2 12.5 1.5 16.8-2.8 3.2-3.1 2.4-8.9-1.7-10.9-9.6-4.5-21.7-3.3-29.8-11-7.5-7.1-5.2-20.5 3.4-25.8zm85.5-.2c9.3-5.6 21.6-5.9 31.2-.9 7.3 3.8 12 11.4 12.9 19.5-4.1.1-8.2.1-12.3.1-1.4-3.2-2.6-6.9-5.6-9.1-4.2-3.3-10-3.6-15-2.3-6.3 2-9.9 8.5-11 14.7-1 7.6-.8 16.2 4 22.5 4.9 6.8 15.4 7.8 22 3 3-2.1 4.1-5.7 5.5-8.9 4.1 0 8.2 0 12.3.1-.8 12.5-12.2 21.8-24.2 22.7H366c-7-.9-14.1-3.8-18.8-9.2-5.9-6.8-8.1-16.1-7.7-25 .1-10.4 4.5-21.5 13.6-27.2zm-157.5-3.3h13c.4 14.2-.4 28.3.4 42.5.5 10.9 15.2 14.2 22.7 8 4-3.2 5.8-8.4 5.7-13.4.1-12.4-.1-24.7.1-37.1h13.1c0 21.2.1 42.4 0 63.7-4.2 0-8.5-.1-12.7-.5v-10.3c-3.3 6.6-9.7 11.4-17.2 11.9H215c-5.7-.8-11.5-3.3-14.9-8.2-3.6-4.8-4.6-11-4.5-16.8v-39.8zm123.1 0c4.1 0 8.3 0 12.4-.1.4 1.9.7 3.7.7 5.6-.1 19.2 0 38.4-.1 57.7-4.4.1-8.7.1-13.1.1 0-21.1-.1-42.2.1-63.3z"/></svg>