<svg width="171" height="171" xmlns="http://www.w3.org/2000/svg" xmlns:xlink="http://www.w3.org/1999/xlink"><defs><path id="a" d="M0 0h170.658v170.657H0z"/></defs><g fill="none" fill-rule="evenodd"><mask id="b" fill="#fff"><use xlink:href="#a"/></mask><path d="M140.089 77.444a8.09 8.09 0 01-3.44-.788c-20.21-10.105-41.967-15.21-64.725-15.21-11.825 0-23.597 1.467-35.048 4.28-4.226 1.038-8.44-1.522-9.48-5.68-1.04-4.227 1.507-9.267 5.667-10.32 12.718-3.118 25.729-4.733 38.86-4.733 25.145 0 49.315 5.68 71.659 16.825 3.893 1.92 5.466 6.614 3.532 10.52-1.345 2.706-4.105 5.106-7.025 5.106m-4.532 25.77c-1.2 2.346-3.6 6.145-6.04 6.145-1.094 0-2.133-.252-3.173-.773-16.932-8.811-35.21-13.239-54.42-13.239-10.572 0-21.05 1.36-31.196 4.175-3.653.985-7.4-1.148-8.386-4.8-.986-3.694 1.147-9.892 4.787-10.88a133.043 133.043 0 0134.795-4.64c21.09 0 42.128 5.108 60.713 14.799 3.386 1.72 4.692 5.825 2.92 9.212m-10.84 32.13c-1.04 1.934-3.065 3.026-5.093 3.026a5.7 5.7 0 01-2.865-.733c-13.652-7.493-29.17-11.505-44.835-11.505-9.385 0-18.704 1.398-27.556 4.159-3.12.946-6.4-.772-7.346-3.852-.933-3.067.787-9.626 3.853-10.626 10.052-3.066 20.477-4.68 31.049-4.68 17.65 0 35.143 4.48 50.514 12.972 2.853 1.56 3.853 8.372 2.28 11.239M85.296 0C38.222 0 0 38.22 0 85.296c0 47.14 38.222 85.361 85.296 85.361 47.14 0 85.362-38.22 85.362-85.362C170.658 38.222 132.437 0 85.296 0" fill="#231F20" mask="url(#b)"/></g></svg>