<?xml version="1.0" encoding="UTF-8"?>
<svg width="171px" height="171px" viewBox="0 0 171 171" version="1.1" xmlns="http://www.w3.org/2000/svg" xmlns:xlink="http://www.w3.org/1999/xlink">
    <title>Group 3</title>
    <defs>
        <polygon id="path-1" points="0 -2.84217094e-14 170.6579 -2.84217094e-14 170.6579 170.6575 0 170.6575"></polygon>
    </defs>
    <g id="Page-1" stroke="none" stroke-width="1" fill="none" fill-rule="evenodd">
        <g id="Group-3">
            <mask id="mask-2" fill="white">
                <use xlink:href="#path-1"></use>
            </mask>
            <g id="Clip-2"></g>
            <path d="M140.0889,77.4435 C138.9429,77.4435 137.7419,77.1765 136.6499,76.6565 C116.4389,66.5515 94.6819,61.4455 71.9239,61.4455 C60.0989,61.4455 48.3269,62.9125 36.8759,65.7255 C32.6499,66.7645 28.4359,64.2045 27.3969,60.0455 C26.3569,55.8195 28.9029,50.7795 33.0629,49.7265 C45.7809,46.6075 58.7919,44.9935 71.9239,44.9935 C97.0679,44.9935 121.2379,50.6735 143.5819,61.8185 C147.4749,63.7385 149.0479,68.4315 147.1139,72.3375 C145.7689,75.0435 143.0089,77.4435 140.0889,77.4435 M135.5569,103.2135 C134.3569,105.5595 131.9569,109.3595 129.5169,109.3595 C128.4229,109.3595 127.3839,109.1065 126.3439,108.5855 C109.4119,99.7745 91.1349,95.3475 71.9239,95.3475 C61.3519,95.3475 50.8739,96.7075 40.7279,99.5215 C37.0749,100.5075 33.3289,98.3735 32.3419,94.7215 C31.3559,91.0275 33.4889,84.8295 37.1289,83.8425 C48.4339,80.7765 60.1519,79.2025 71.9239,79.2025 C93.0149,79.2025 114.0519,84.3095 132.6369,94.0005 C136.0229,95.7215 137.3289,99.8265 135.5569,103.2135 M124.7179,135.3425 C123.6779,137.2765 121.6519,138.3685 119.6239,138.3685 C118.6249,138.3685 117.6919,138.1555 116.7589,137.6355 C103.1069,130.1435 87.5889,126.1305 71.9239,126.1305 C62.5389,126.1305 53.2199,127.5295 44.3679,130.2895 C41.2479,131.2355 37.9679,129.5175 37.0219,126.4375 C36.0889,123.3705 37.8089,116.8125 40.8749,115.8125 C50.9269,112.7455 61.3519,111.1325 71.9239,111.1325 C89.5749,111.1325 107.0669,115.6115 122.4379,124.1045 C125.2909,125.6635 126.2909,132.4765 124.7179,135.3425 M85.2959,-0.0005 C38.2219,-0.0005 -0.0001,38.2215 -0.0001,85.2955 C-0.0001,132.4365 38.2219,170.6575 85.2959,170.6575 C132.4369,170.6575 170.6579,132.4365 170.6579,85.2955 C170.6579,38.2215 132.4369,-0.0005 85.2959,-0.0005" id="Fill-1" fill="#231F20" mask="url(#mask-2)"></path>
        </g>
    </g>
</svg>